<!DOCTYPE svg PUBLIC "-//W3C//DTD SVG 1.1//EN" "http://www.w3.org/Graphics/SVG/1.1/DTD/svg11.dtd">
<!-- Uploaded to: SVG Repo, www.svgrepo.com, Transformed by: SVG Repo Mixer Tools -->
<svg width="800px" height="800px" viewBox="-3.2 -3.2 38.40 38.40" xmlns="http://www.w3.org/2000/svg" xmlns:xlink="http://www.w3.org/1999/xlink" fill="#000000" transform="matrix(1, 0, 0, 1, 0, 0)rotate(0)">
<g id="SVGRepo_bgCarrier" stroke-width="0" transform="translate(0,0), scale(1)">
<path transform="translate(-3.2, -3.2), scale(1.2)" d="M16,27.214168831925182C18.385816926634636,26.76753973126042,20.65405097428256,26.428582711718594,22.88920664369262,25.482179470768415C25.821213801048973,24.24071735956631,29.81115708506301,23.828616435877844,30.985455954029934,20.869069796495005C32.15268632044572,17.927337670541018,29.593098849189943,14.882186629880696,28.228051481501,12.026865227110356C27.050837389319238,9.56444181777457,25.93686330220042,6.957739460114305,23.634273963528937,5.492323340674968C21.404364999040528,4.073162534810656,18.642203104222546,4.317300220057342,16,4.244676953510327C13.271727100973461,4.16968798326714,10.300975515845327,3.5139677993424514,8.054605387312087,5.064102504087289C5.792954593081033,6.62478181584453,4.989826492164449,9.5490891145014,4.418192290392534,12.236842557166408C3.894412547621778,14.699590241728522,4.579439045984087,17.097138739643363,4.966269545081769,19.585076347727796C5.443965483470088,22.657423779271387,4.384326992579956,26.699253156816678,6.94178388036055,28.467564898792283C9.511888806580245,30.244621920108347,12.928713108789829,27.789119108617026,16,27.214168831925182" fill="#7ed0ec" strokewidth="0"/>
</g>
<g id="SVGRepo_tracerCarrier" stroke-linecap="round" stroke-linejoin="round" stroke="#CCCCCC" stroke-width="0.32"/>
<g id="SVGRepo_iconCarrier">
<defs>
<linearGradient id="a" x1="-66.775" y1="-171.703" x2="-66.775" y2="-171.817" gradientTransform="matrix(240, 0, 0, -240, 16042, -41206)" gradientUnits="userSpaceOnUse">
<stop offset="0" stop-color="#670feb"/>
<stop offset="1" stop-color="#0ff1f5"/>
</linearGradient>
</defs>
<title>file_type_favicon</title>
<rect x="2" y="2" width="28" height="28" rx="1.75" ry="1.75" style="fill:url(#a)"/>
<polygon points="16 22.625 9.511 26.033 10.75 18.815 5.5 13.704 12.755 12.65 16 6.083 19.245 12.65 26.5 13.704 21.25 18.815 22.489 26.033 16 22.625" style="fill:#fff"/>
</g>
</svg>